<svg xmlns="http://www.w3.org/2000/svg" id="Layer_1" data-name="Layer 1" viewBox="0 0 24 24">
  <path d="m21,9h3v15h-3v-15Zm3-2.8l-2.148-5.505c-.219-.561-.852-.839-1.413-.62l-5.505,2.148,3.294,1.445c-1.64,2.959-6.904,10.687-18.229,13.189v3.069c13.197-2.651,19.205-11.753,20.984-15.05l3.016,1.323ZM.011,6.354c-.094-1.6.44-3.141,1.504-4.339C2.579.817,4.047.105,5.647.011c1.6-.094,3.141.44,4.339,1.504,1.198,1.064,1.91,2.532,2.004,4.132.094,1.6-.44,3.141-1.504,4.339-1.064,1.198-2.532,1.91-4.132,2.004-1.6.094-3.141-.44-4.339-1.504C.817,9.421.105,7.954.011,6.354Zm3.989-2.354c0,1.105.895,2,2,2s2-.895,2-2-.895-2-2-2-2,.895-2,2Zm-1,4.619c.787.899,1.954,1.45,3.236,1.375,1.101-.065,2.073-.572,2.753-1.338.004-.005.007-.011.011-.015v-.14c0-.828-.672-1.5-1.5-1.5h-3c-.828,0-1.5.672-1.5,1.5v.119Zm2.977,15.381h3v-5.036c-.947.473-1.943.918-3,1.321v3.715Zm-5,0h3v-3.031c-.958.298-1.958.563-3,.79v2.24Zm10,0h3v-8.128c-.922.695-1.919,1.371-3,2.009v6.118Zm5.023-9.787v9.787h3v-12.828c-.857.991-1.852,2.02-3,3.041Z"/>
</svg>
